<?xml version="1.0" encoding="iso-8859-1"?>
<!-- Generator: Adobe Illustrator 16.0.0, SVG Export Plug-In . SVG Version: 6.00 Build 0)  -->
<!DOCTYPE svg PUBLIC "-//W3C//DTD SVG 1.1//EN" "http://www.w3.org/Graphics/SVG/1.1/DTD/svg11.dtd">
<svg version="1.1" id="Capa_1" xmlns="http://www.w3.org/2000/svg" xmlns:xlink="http://www.w3.org/1999/xlink" x="0px" y="0px"
	 width="612px" height="612px" viewBox="0 0 612 612" style="enable-background:new 0 0 612 612;" xml:space="preserve">
<g>
	<g id="plus">
		<g>
			<path d="M554.625,248.625h-191.25V57.375C363.375,25.685,337.69,0,306,0c-31.69,0-57.375,25.685-57.375,57.375v191.25H57.375
				C25.685,248.625,0,274.31,0,306c0,31.69,25.685,57.375,57.375,57.375h191.25v191.25C248.625,586.315,274.31,612,306,612
				c31.69,0,57.375-25.685,57.375-57.375v-191.25h191.25C586.315,363.375,612,337.69,612,306
				C612,274.31,586.315,248.625,554.625,248.625z"/>
		</g>
	</g>
</g>
<g>
</g>
<g>
</g>
<g>
</g>
<g>
</g>
<g>
</g>
<g>
</g>
<g>
</g>
<g>
</g>
<g>
</g>
<g>
</g>
<g>
</g>
<g>
</g>
<g>
</g>
<g>
</g>
<g>
</g>
</svg>
